# Blender 3.5.1
# www.blender.org
mtllib botoncin real.mtl
o boton
v 0.000000 -0.000000 0.808168
v 0.157666 -0.000000 0.792640
v 0.309273 -0.000000 0.746650
v 0.448994 -0.000000 0.671967
v 0.571461 -0.000000 0.571461
v 0.671967 -0.000000 0.448994
v 0.746650 -0.000000 0.309273
v 0.792640 -0.000000 0.157666
v 0.808168 0.000000 0.000000
v 0.792640 0.000000 -0.157666
v 0.746650 0.000000 -0.309273
v 0.671967 0.000000 -0.448994
v 0.571461 0.000000 -0.571461
v 0.448994 0.000000 -0.671967
v 0.309273 0.000000 -0.746650
v 0.157666 0.000000 -0.792640
v 0.000000 0.000000 -0.808168
v -0.157666 0.000000 -0.792640
v -0.309273 0.000000 -0.746650
v -0.448994 0.000000 -0.671967
v -0.571461 0.000000 -0.571461
v -0.671967 0.000000 -0.448994
v -0.746650 0.000000 -0.309273
v -0.792640 0.000000 -0.157666
v -0.808168 0.000000 0.000000
v -0.792640 -0.000000 0.157666
v -0.746650 -0.000000 0.309273
v -0.671967 -0.000000 0.448994
v -0.571461 -0.000000 0.571461
v -0.448994 -0.000000 0.671967
v -0.309273 -0.000000 0.746650
v -0.157666 -0.000000 0.792640
v 0.000000 0.124370 0.808168
v 0.157666 0.124370 0.792640
v 0.309273 0.124370 0.746650
v 0.448994 0.124370 0.671967
v 0.571461 0.124370 0.571461
v 0.671967 0.124370 0.448994
v 0.746650 0.124370 0.309273
v 0.792640 0.124370 0.157666
v 0.808168 0.124370 0.000000
v 0.792640 0.124370 -0.157666
v 0.746650 0.124370 -0.309273
v 0.671967 0.124370 -0.448994
v 0.571461 0.124370 -0.571461
v 0.448994 0.124370 -0.671967
v 0.309273 0.124370 -0.746650
v 0.157666 0.124370 -0.792640
v 0.000000 0.124370 -0.808168
v -0.157666 0.124370 -0.792640
v -0.309273 0.124370 -0.746650
v -0.448994 0.124370 -0.671967
v -0.571461 0.124370 -0.571461
v -0.671967 0.124370 -0.448994
v -0.746650 0.124370 -0.309273
v -0.792640 0.124370 -0.157666
v -0.808168 0.124370 0.000000
v -0.792640 0.124370 0.157666
v -0.746650 0.124370 0.309273
v -0.671967 0.124370 0.448994
v -0.571461 0.124370 0.571461
v -0.448994 0.124370 0.671967
v -0.309273 0.124370 0.746650
v -0.157666 0.124370 0.792640
v 0.000000 0.124370 0.743697
v 0.145088 0.124370 0.729407
v 0.284600 0.124370 0.687086
v 0.413176 0.124370 0.618361
v 0.525873 0.124370 0.525873
v 0.618361 0.124370 0.413176
v 0.687086 0.124370 0.284600
v 0.729407 0.124370 0.145088
v 0.743697 0.124370 0.000000
v 0.729407 0.124370 -0.145088
v 0.687086 0.124370 -0.284600
v 0.618361 0.124370 -0.413176
v 0.525873 0.124370 -0.525873
v 0.413176 0.124370 -0.618361
v 0.284600 0.124370 -0.687086
v 0.145088 0.124370 -0.729407
v 0.000000 0.124370 -0.743697
v -0.145088 0.124370 -0.729407
v -0.284600 0.124370 -0.687086
v -0.413176 0.124370 -0.618361
v -0.525873 0.124370 -0.525873
v -0.618361 0.124370 -0.413176
v -0.687086 0.124370 -0.284600
v -0.729407 0.124370 -0.145088
v -0.743697 0.124370 0.000000
v -0.729407 0.124370 0.145088
v -0.687086 0.124370 0.284600
v -0.618361 0.124370 0.413176
v -0.525873 0.124370 0.525873
v -0.413176 0.124370 0.618361
v -0.284600 0.124370 0.687086
v -0.145088 0.124370 0.729407
v 0.000000 0.206488 0.654336
v 0.127655 0.206488 0.641764
v 0.250404 0.206488 0.604528
v 0.363530 0.206488 0.544061
v 0.462686 0.206488 0.462686
v 0.544061 0.206488 0.363530
v 0.604528 0.206488 0.250404
v 0.641763 0.206488 0.127655
v 0.654336 0.206488 0.000000
v 0.641763 0.206488 -0.127655
v 0.604528 0.206488 -0.250404
v 0.544061 0.206488 -0.363530
v 0.462686 0.206488 -0.462686
v 0.363530 0.206488 -0.544061
v 0.250404 0.206488 -0.604528
v 0.127655 0.206488 -0.641763
v 0.000000 0.206488 -0.654336
v -0.127655 0.206488 -0.641763
v -0.250404 0.206488 -0.604528
v -0.363530 0.206488 -0.544061
v -0.462686 0.206488 -0.462686
v -0.544061 0.206488 -0.363530
v -0.604528 0.206488 -0.250404
v -0.641763 0.206488 -0.127655
v -0.654336 0.206488 0.000000
v -0.641763 0.206488 0.127655
v -0.604528 0.206488 0.250404
v -0.544061 0.206488 0.363530
v -0.462686 0.206488 0.462686
v -0.363530 0.206488 0.544061
v -0.250404 0.206488 0.604528
v -0.127655 0.206488 0.641764
v -0.000000 0.311274 0.345431
v 0.067390 0.311274 0.338794
v 0.132191 0.311274 0.319137
v 0.191911 0.311274 0.287216
v 0.244257 0.311274 0.244257
v 0.287216 0.311274 0.191911
v 0.319137 0.311274 0.132191
v 0.338794 0.311274 0.067390
v 0.345431 0.311274 0.000000
v 0.338794 0.311274 -0.067390
v 0.319137 0.311274 -0.132191
v 0.287216 0.311274 -0.191911
v 0.244257 0.311274 -0.244257
v 0.191911 0.311274 -0.287216
v 0.132191 0.311274 -0.319137
v 0.067390 0.311274 -0.338794
v -0.000000 0.311274 -0.345431
v -0.067390 0.311274 -0.338794
v -0.132191 0.311274 -0.319137
v -0.191911 0.311274 -0.287216
v -0.244257 0.311274 -0.244257
v -0.287216 0.311274 -0.191911
v -0.319137 0.311274 -0.132191
v -0.338794 0.311274 -0.067390
v -0.345431 0.311274 0.000000
v -0.338794 0.311274 0.067390
v -0.319137 0.311274 0.132191
v -0.287216 0.311274 0.191911
v -0.244257 0.311274 0.244257
v -0.191911 0.311274 0.287216
v -0.132191 0.311274 0.319137
v -0.067390 0.311274 0.338794
v -0.000000 0.350969 0.082597
v 0.016114 0.350969 0.081010
v 0.031609 0.350969 0.076310
v 0.045889 0.350969 0.068677
v 0.058405 0.350969 0.058405
v 0.068677 0.350969 0.045889
v 0.076310 0.350969 0.031609
v 0.081010 0.350969 0.016114
v 0.082597 0.350969 0.000000
v 0.081010 0.350969 -0.016114
v 0.076310 0.350969 -0.031608
v 0.068677 0.350969 -0.045888
v 0.058405 0.350969 -0.058405
v 0.045889 0.350969 -0.068677
v 0.031609 0.350969 -0.076310
v 0.016114 0.350969 -0.081010
v -0.000000 0.350969 -0.082597
v -0.016114 0.350969 -0.081010
v -0.031609 0.350969 -0.076310
v -0.045889 0.350969 -0.068677
v -0.058405 0.350969 -0.058405
v -0.068677 0.350969 -0.045888
v -0.076310 0.350969 -0.031608
v -0.081010 0.350969 -0.016114
v -0.082597 0.350969 0.000000
v -0.081010 0.350969 0.016114
v -0.076310 0.350969 0.031609
v -0.068677 0.350969 0.045889
v -0.058405 0.350969 0.058405
v -0.045889 0.350969 0.068677
v -0.031609 0.350969 0.076310
v -0.016114 0.350969 0.081010
v -0.000000 0.350969 0.000000
vn 0.9808 -0.0000 0.1951
vn 1.0000 -0.0000 -0.0000
vn 0.7279 0.6857 -0.0000
vn 0.7139 0.6857 0.1420
vn 0.6725 0.6857 -0.2786
vn 0.6052 0.6857 -0.4044
vn 0.2853 0.9393 -0.1906
vn 0.3170 0.9393 -0.1313
vn -0.8315 -0.0000 -0.5556
vn -0.9239 -0.0000 -0.3827
vn -0.6725 0.6857 -0.2786
vn -0.6052 0.6857 -0.4044
vn 0.9808 -0.0000 -0.1951
vn 0.7139 0.6857 -0.1420
vn -0.9808 -0.0000 -0.1951
vn -0.7139 0.6857 -0.1420
vn 0.9239 -0.0000 -0.3827
vn -1.0000 -0.0000 -0.0000
vn -0.7279 0.6857 -0.0000
vn 0.8315 -0.0000 -0.5556
vn -0.9808 -0.0000 0.1951
vn -0.7139 0.6857 0.1420
vn 0.7071 -0.0000 -0.7071
vn 0.5147 0.6857 -0.5147
vn -0.9239 -0.0000 0.3827
vn -0.6725 0.6857 0.2786
vn 0.5556 -0.0000 -0.8315
vn 0.4044 0.6857 -0.6052
vn -0.8315 -0.0000 0.5556
vn -0.6052 0.6857 0.4044
vn 0.3827 -0.0000 -0.9239
vn 0.2786 0.6857 -0.6725
vn -0.0000 -0.0000 1.0000
vn 0.1951 -0.0000 0.9808
vn 0.1420 0.6857 0.7139
vn -0.0000 0.6857 0.7279
vn -0.7071 -0.0000 0.7071
vn -0.5147 0.6857 0.5147
vn 0.1951 -0.0000 -0.9808
vn 0.1420 0.6857 -0.7139
vn 0.3827 -0.0000 0.9239
vn 0.2786 0.6857 0.6725
vn -0.5556 -0.0000 0.8315
vn -0.4044 0.6857 0.6052
vn -0.0000 -0.0000 -1.0000
vn -0.0000 0.6857 -0.7279
vn 0.5556 -0.0000 0.8315
vn 0.4044 0.6857 0.6052
vn -0.3827 -0.0000 0.9239
vn -0.2786 0.6857 0.6725
vn -0.1951 -0.0000 -0.9808
vn -0.1420 0.6857 -0.7139
vn 0.7071 -0.0000 0.7071
vn 0.5147 0.6857 0.5147
vn -0.1951 -0.0000 0.9808
vn -0.1420 0.6857 0.7139
vn -0.3827 -0.0000 -0.9239
vn -0.2786 0.6857 -0.6725
vn 0.8315 -0.0000 0.5556
vn 0.6052 0.6857 0.4044
vn -0.5556 -0.0000 -0.8315
vn -0.4044 0.6857 -0.6052
vn 0.9239 -0.0000 0.3827
vn 0.6725 0.6857 0.2786
vn -0.7071 -0.0000 -0.7071
vn -0.5147 0.6857 -0.5147
vn 0.1906 0.9393 -0.2853
vn 0.1313 0.9393 -0.3170
vn 0.1988 0.8546 -0.4798
vn 0.2885 0.8546 -0.4318
vn -0.3365 0.9393 0.0669
vn -0.3431 0.9393 -0.0000
vn 0.2426 0.9393 -0.2426
vn -0.3170 0.9393 0.1313
vn -0.2853 0.9393 0.1906
vn 0.0669 0.9393 0.3365
vn -0.0000 0.9393 0.3431
vn -0.2426 0.9393 0.2426
vn 0.0669 0.9393 -0.3365
vn 0.1313 0.9393 0.3170
vn -0.1906 0.9393 0.2853
vn -0.0000 0.9393 -0.3431
vn 0.1906 0.9393 0.2853
vn -0.1313 0.9393 0.3170
vn -0.0669 0.9393 -0.3365
vn 0.2426 0.9393 0.2426
vn -0.0669 0.9393 0.3365
vn -0.1313 0.9393 -0.3170
vn 0.2853 0.9393 0.1906
vn -0.1906 0.9393 -0.2853
vn 0.3170 0.9393 0.1313
vn -0.2426 0.9393 -0.2426
vn 0.3365 0.9393 0.0669
vn -0.2853 0.9393 -0.1906
vn 0.3431 0.9393 -0.0000
vn -0.3170 0.9393 -0.1313
vn 0.3365 0.9393 -0.0669
vn -0.3365 0.9393 -0.0669
vn -0.0000 0.8546 -0.5194
vn -0.1013 0.8546 -0.5094
vn -0.0471 0.9704 -0.2368
vn -0.0000 0.9704 -0.2414
vn 0.1013 0.8546 0.5094
vn -0.0000 0.8546 0.5194
vn -0.3672 0.8546 0.3672
vn -0.4318 0.8546 0.2885
vn 0.1013 0.8546 -0.5094
vn 0.1988 0.8546 0.4798
vn -0.2885 0.8546 0.4318
vn 0.2885 0.8546 0.4318
vn -0.1988 0.8546 0.4798
vn 0.3672 0.8546 0.3672
vn -0.1013 0.8546 0.5094
vn -0.1988 0.8546 -0.4798
vn 0.4318 0.8546 0.2885
vn -0.2885 0.8546 -0.4318
vn 0.4798 0.8546 0.1988
vn -0.3672 0.8546 -0.3672
vn 0.5094 0.8546 0.1013
vn -0.4318 0.8546 -0.2885
vn 0.5194 0.8546 -0.0000
vn -0.4798 0.8546 -0.1988
vn 0.5094 0.8546 -0.1013
vn -0.5094 0.8546 -0.1013
vn 0.4798 0.8546 -0.1988
vn -0.5194 0.8546 -0.0000
vn 0.4318 0.8546 -0.2885
vn -0.5094 0.8546 0.1013
vn 0.3672 0.8546 -0.3672
vn -0.4798 0.8546 0.1988
vn -0.1341 0.9704 -0.2007
vn -0.1707 0.9704 -0.1707
vn -0.0562 0.9968 -0.0562
vn -0.0442 0.9968 -0.0661
vn 0.1707 0.9704 0.1707
vn 0.1341 0.9704 0.2007
vn -0.0471 0.9704 0.2368
vn -0.0924 0.9704 0.2230
vn -0.0924 0.9704 -0.2230
vn 0.2007 0.9704 0.1341
vn -0.0000 0.9704 0.2414
vn 0.2230 0.9704 0.0924
vn 0.2368 0.9704 0.0471
vn -0.2007 0.9704 -0.1341
vn 0.2414 0.9704 -0.0000
vn -0.2230 0.9704 -0.0924
vn 0.2368 0.9704 -0.0471
vn -0.2368 0.9704 -0.0471
vn 0.2230 0.9704 -0.0924
vn -0.2414 0.9704 -0.0000
vn 0.2007 0.9704 -0.1341
vn -0.2368 0.9704 0.0471
vn 0.1707 0.9704 -0.1707
vn -0.2230 0.9704 0.0924
vn 0.1341 0.9704 -0.2007
vn -0.2007 0.9704 0.1341
vn 0.0924 0.9704 -0.2230
vn 0.0471 0.9704 0.2368
vn -0.1707 0.9704 0.1707
vn 0.0471 0.9704 -0.2368
vn 0.0924 0.9704 0.2230
vn -0.1341 0.9704 0.2007
vn -0.0000 1.0000 -0.0000
vn 0.0780 0.9968 0.0155
vn 0.0735 0.9968 0.0304
vn -0.0661 0.9968 -0.0442
vn 0.0795 0.9968 -0.0000
vn -0.0735 0.9968 -0.0304
vn 0.0780 0.9968 -0.0155
vn -0.0780 0.9968 -0.0155
vn 0.0735 0.9968 -0.0304
vn -0.0795 0.9968 -0.0000
vn 0.0661 0.9968 -0.0442
vn -0.0780 0.9968 0.0155
vn 0.0562 0.9968 -0.0562
vn -0.0735 0.9968 0.0304
vn 0.0442 0.9968 -0.0661
vn -0.0661 0.9968 0.0442
vn 0.0304 0.9968 -0.0735
vn 0.0155 0.9968 0.0780
vn -0.0000 0.9968 0.0795
vn -0.0562 0.9968 0.0562
vn 0.0155 0.9968 -0.0780
vn 0.0304 0.9968 0.0735
vn -0.0442 0.9968 0.0661
vn -0.0000 0.9968 -0.0795
vn 0.0442 0.9968 0.0661
vn -0.0304 0.9968 0.0735
vn -0.0155 0.9968 -0.0780
vn 0.0562 0.9968 0.0562
vn -0.0155 0.9968 0.0780
vn -0.0304 0.9968 -0.0735
vn 0.0661 0.9968 0.0442
vt 0.932961 0.307577
vt 0.932961 0.392403
vt 0.932961 0.473968
vt 0.932961 0.549140
vt 0.932961 0.615028
vt 0.932961 0.549140
vt 0.932961 0.473968
vt 0.932961 0.392403
vt 0.932961 0.307577
vt 0.932961 0.222752
vt 0.932961 0.141187
vt 0.932961 0.066015
vt 0.932961 0.000127
vt 0.865795 0.615028
vt 0.865795 0.549140
vt 0.865795 0.473968
vt 0.865795 0.392403
vt 0.865795 0.307577
vt 0.865795 0.222752
vt 0.865795 0.141187
vt 0.865795 0.066015
vt 0.865795 0.000127
vt 0.865795 0.066015
vt 0.865795 0.141187
vt 0.865795 0.222752
vt 0.865795 0.307577
vt 0.865795 0.392403
vt 0.865795 0.473968
vt 0.865795 0.549140
vt 0.865795 0.615028
vt 0.932961 0.000127
vt 0.932961 0.066015
vt 0.932961 0.141187
vt 0.932961 0.222752
vt 0.999873 0.307577
vt 0.016756 0.559050
vt 0.999873 0.392403
vt 0.049374 0.637797
vt 0.999873 0.473968
vt 0.096729 0.708668
vt 0.999873 0.549140
vt 0.156999 0.768939
vt 0.999873 0.615028
vt 0.227870 0.816294
vt 0.999873 0.549140
vt 0.306618 0.848912
vt 0.999873 0.473968
vt 0.390216 0.865541
vt 0.999873 0.392403
vt 0.475452 0.865541
vt 0.999873 0.307577
vt 0.559050 0.848912
vt 0.999873 0.222752
vt 0.637797 0.816294
vt 0.999873 0.141187
vt 0.708668 0.768939
vt 0.999873 0.066015
vt 0.768939 0.708668
vt 0.999873 0.000127
vt 0.932707 0.615028
vt 0.816294 0.637797
vt 0.932707 0.549140
vt 0.848912 0.559050
vt 0.932707 0.473968
vt 0.865541 0.475452
vt 0.932707 0.392403
vt 0.865541 0.390216
vt 0.932707 0.307577
vt 0.848912 0.306618
vt 0.932707 0.222752
vt 0.816294 0.227870
vt 0.932707 0.141187
vt 0.768939 0.156999
vt 0.932707 0.066015
vt 0.708668 0.096729
vt 0.932707 0.000127
vt 0.637797 0.049374
vt 0.932707 0.066015
vt 0.559050 0.016756
vt 0.932707 0.141187
vt 0.475452 0.000127
vt 0.932707 0.222752
vt 0.390216 0.000127
vt 0.932707 0.307577
vt 0.306618 0.016756
vt 0.932707 0.392403
vt 0.227870 0.049374
vt 0.932707 0.473968
vt 0.156999 0.096729
vt 0.932707 0.549140
vt 0.096729 0.156999
vt 0.932707 0.615028
vt 0.999873 0.000127
vt 0.049374 0.227870
vt 0.999873 0.066015
vt 0.016756 0.306618
vt 0.999873 0.141187
vt 0.000127 0.390216
vt 0.999873 0.222752
vt 0.000127 0.475452
vt 0.049948 0.548981
vt 0.079965 0.621446
vt 0.123541 0.686664
vt 0.179004 0.742126
vt 0.244221 0.785703
vt 0.316687 0.815719
vt 0.393616 0.831021
vt 0.472052 0.831021
vt 0.548981 0.815719
vt 0.621446 0.785703
vt 0.686664 0.742126
vt 0.742126 0.686664
vt 0.785703 0.621446
vt 0.815719 0.548981
vt 0.831021 0.472052
vt 0.831021 0.393616
vt 0.815719 0.316687
vt 0.785703 0.244221
vt 0.742126 0.179004
vt 0.686664 0.123541
vt 0.621446 0.079965
vt 0.548981 0.049948
vt 0.472052 0.034646
vt 0.393616 0.034646
vt 0.316687 0.049948
vt 0.244221 0.079965
vt 0.179004 0.123541
vt 0.123541 0.179004
vt 0.079965 0.244221
vt 0.049948 0.316687
vt 0.034646 0.393616
vt 0.034646 0.472052
vt 0.095955 0.535025
vt 0.122364 0.598783
vt 0.160705 0.656164
vt 0.209503 0.704963
vt 0.266884 0.743303
vt 0.330643 0.769713
vt 0.398328 0.783176
vt 0.467340 0.783176
vt 0.535025 0.769713
vt 0.598783 0.743304
vt 0.656164 0.704963
vt 0.704963 0.656164
vt 0.743303 0.598783
vt 0.769713 0.535025
vt 0.783177 0.467340
vt 0.783177 0.398328
vt 0.769713 0.330643
vt 0.743304 0.266885
vt 0.704963 0.209504
vt 0.656164 0.160705
vt 0.598783 0.122364
vt 0.535025 0.095955
vt 0.467340 0.082491
vt 0.398328 0.082491
vt 0.330643 0.095955
vt 0.266885 0.122364
vt 0.209504 0.160705
vt 0.160705 0.209503
vt 0.122364 0.266884
vt 0.095955 0.330643
vt 0.082491 0.398328
vt 0.082491 0.467340
vt 0.254992 0.486782
vt 0.268934 0.520440
vt 0.289174 0.550732
vt 0.314935 0.576494
vt 0.345227 0.596734
vt 0.378886 0.610676
vt 0.414618 0.617784
vt 0.451050 0.617784
vt 0.486782 0.610676
vt 0.520440 0.596734
vt 0.550732 0.576494
vt 0.576494 0.550732
vt 0.596734 0.520440
vt 0.610676 0.486782
vt 0.617784 0.451050
vt 0.617784 0.414618
vt 0.610676 0.378886
vt 0.596734 0.345227
vt 0.576494 0.314935
vt 0.550732 0.289174
vt 0.520440 0.268934
vt 0.486782 0.254992
vt 0.451050 0.247884
vt 0.414618 0.247884
vt 0.378886 0.254992
vt 0.345227 0.268934
vt 0.314935 0.289174
vt 0.289174 0.314935
vt 0.268934 0.345227
vt 0.254992 0.378886
vt 0.247884 0.414618
vt 0.247884 0.451050
vt 0.390310 0.445734
vt 0.393643 0.453782
vt 0.398483 0.461025
vt 0.404643 0.467185
vt 0.411886 0.472025
vt 0.419934 0.475358
vt 0.428478 0.477058
vt 0.437190 0.477058
vt 0.445734 0.475358
vt 0.453782 0.472025
vt 0.461025 0.467185
vt 0.467185 0.461025
vt 0.472025 0.453782
vt 0.475358 0.445734
vt 0.477058 0.437190
vt 0.477058 0.428478
vt 0.475358 0.419934
vt 0.472025 0.411886
vt 0.467185 0.404643
vt 0.461025 0.398483
vt 0.453782 0.393643
vt 0.445734 0.390309
vt 0.437190 0.388610
vt 0.428478 0.388610
vt 0.419934 0.390309
vt 0.411886 0.393643
vt 0.404643 0.398483
vt 0.398483 0.404643
vt 0.393643 0.411886
vt 0.390310 0.419934
vt 0.388610 0.428478
vt 0.388610 0.437190
vt 0.432834 0.432834
s 1
f 8/8/1 9/9/2 41/51/3 40/49/4
f 43/56/5 44/58/6 76/112/7 75/111/8
f 22/23/9 23/24/10 55/80/11 54/78/12
f 9/9/2 10/10/13 42/53/14 41/51/3
f 23/24/10 24/25/15 56/82/16 55/80/11
f 10/10/13 11/11/17 43/55/5 42/53/14
f 24/25/15 25/26/18 57/84/19 56/82/16
f 11/11/17 12/12/20 44/57/6 43/55/5
f 25/26/18 26/27/21 58/86/22 57/84/19
f 12/12/20 13/13/23 45/59/24 44/57/6
f 26/27/21 27/28/25 59/88/26 58/86/22
f 13/14/23 14/15/27 46/62/28 45/60/24
f 27/28/25 28/29/29 60/90/30 59/88/26
f 14/15/27 15/16/31 47/64/32 46/62/28
f 1/1/33 2/2/34 34/37/35 33/35/36
f 28/29/29 29/30/37 61/92/38 60/90/30
f 15/16/31 16/17/39 48/66/40 47/64/32
f 2/2/34 3/3/41 35/39/42 34/37/35
f 29/31/37 30/32/43 62/95/44 61/93/38
f 16/17/39 17/18/45 49/68/46 48/66/40
f 3/3/41 4/4/47 36/41/48 35/39/42
f 30/32/43 31/33/49 63/97/50 62/95/44
f 17/18/45 18/19/51 50/70/52 49/68/46
f 4/4/47 5/5/53 37/43/54 36/41/48
f 31/33/49 32/34/55 64/99/56 63/97/50
f 18/19/51 19/20/57 51/72/58 50/70/52
f 5/5/53 6/6/59 38/45/60 37/43/54
f 32/34/55 1/1/33 33/35/36 64/99/56
f 19/20/57 20/21/61 52/74/62 51/72/58
f 6/6/59 7/7/63 39/47/64 38/45/60
f 20/21/61 21/22/65 53/76/66 52/74/62
f 7/7/63 8/8/1 40/49/4 39/47/64
f 21/22/65 22/23/9 54/78/12 53/76/66
f 78/114/67 79/115/68 111/147/69 110/146/70
f 57/85/19 58/87/22 90/126/71 89/125/72
f 44/58/6 45/61/24 77/113/73 76/112/7
f 58/87/22 59/89/26 91/127/74 90/126/71
f 45/61/24 46/63/28 78/114/67 77/113/73
f 59/89/26 60/91/30 92/128/75 91/127/74
f 46/63/28 47/65/32 79/115/68 78/114/67
f 33/36/36 34/38/35 66/102/76 65/101/77
f 60/91/30 61/94/38 93/129/78 92/128/75
f 47/65/32 48/67/40 80/116/79 79/115/68
f 34/38/35 35/40/42 67/103/80 66/102/76
f 61/94/38 62/96/44 94/130/81 93/129/78
f 48/67/40 49/69/46 81/117/82 80/116/79
f 35/40/42 36/42/48 68/104/83 67/103/80
f 62/96/44 63/98/50 95/131/84 94/130/81
f 49/69/46 50/71/52 82/118/85 81/117/82
f 36/42/48 37/44/54 69/105/86 68/104/83
f 63/98/50 64/100/56 96/132/87 95/131/84
f 50/71/52 51/73/58 83/119/88 82/118/85
f 37/44/54 38/46/60 70/106/89 69/105/86
f 64/100/56 33/36/36 65/101/77 96/132/87
f 51/73/58 52/75/62 84/120/90 83/119/88
f 38/46/60 39/48/64 71/107/91 70/106/89
f 52/75/62 53/77/66 85/121/92 84/120/90
f 39/48/64 40/50/4 72/108/93 71/107/91
f 53/77/66 54/79/12 86/122/94 85/121/92
f 40/50/4 41/52/3 73/109/95 72/108/93
f 54/79/12 55/81/11 87/123/96 86/122/94
f 41/52/3 42/54/14 74/110/97 73/109/95
f 55/81/11 56/83/16 88/124/98 87/123/96
f 42/54/14 43/56/5 75/111/8 74/110/97
f 56/83/16 57/85/19 89/125/72 88/124/98
f 113/149/99 114/150/100 146/182/101 145/181/102
f 65/101/77 66/102/76 98/134/103 97/133/104
f 92/128/75 93/129/78 125/161/105 124/160/106
f 79/115/68 80/116/79 112/148/107 111/147/69
f 66/102/76 67/103/80 99/135/108 98/134/103
f 93/129/78 94/130/81 126/162/109 125/161/105
f 80/116/79 81/117/82 113/149/99 112/148/107
f 67/103/80 68/104/83 100/136/110 99/135/108
f 94/130/81 95/131/84 127/163/111 126/162/109
f 81/117/82 82/118/85 114/150/100 113/149/99
f 68/104/83 69/105/86 101/137/112 100/136/110
f 95/131/84 96/132/87 128/164/113 127/163/111
f 82/118/85 83/119/88 115/151/114 114/150/100
f 69/105/86 70/106/89 102/138/115 101/137/112
f 96/132/87 65/101/77 97/133/104 128/164/113
f 83/119/88 84/120/90 116/152/116 115/151/114
f 70/106/89 71/107/91 103/139/117 102/138/115
f 84/120/90 85/121/92 117/153/118 116/152/116
f 71/107/91 72/108/93 104/140/119 103/139/117
f 85/121/92 86/122/94 118/154/120 117/153/118
f 72/108/93 73/109/95 105/141/121 104/140/119
f 86/122/94 87/123/96 119/155/122 118/154/120
f 73/109/95 74/110/97 106/142/123 105/141/121
f 87/123/96 88/124/98 120/156/124 119/155/122
f 74/110/97 75/111/8 107/143/125 106/142/123
f 88/124/98 89/125/72 121/157/126 120/156/124
f 75/111/8 76/112/7 108/144/127 107/143/125
f 89/125/72 90/126/71 122/158/128 121/157/126
f 76/112/7 77/113/73 109/145/129 108/144/127
f 90/126/71 91/127/74 123/159/130 122/158/128
f 77/113/73 78/114/67 110/146/70 109/145/129
f 91/127/74 92/128/75 124/160/106 123/159/130
f 148/184/131 149/185/132 181/217/133 180/216/134
f 100/136/110 101/137/112 133/169/135 132/168/136
f 127/163/111 128/164/113 160/196/137 159/195/138
f 114/150/100 115/151/114 147/183/139 146/182/101
f 101/137/112 102/138/115 134/170/140 133/169/135
f 128/164/113 97/133/104 129/165/141 160/196/137
f 115/151/114 116/152/116 148/184/131 147/183/139
f 102/138/115 103/139/117 135/171/142 134/170/140
f 116/152/116 117/153/118 149/185/132 148/184/131
f 103/139/117 104/140/119 136/172/143 135/171/142
f 117/153/118 118/154/120 150/186/144 149/185/132
f 104/140/119 105/141/121 137/173/145 136/172/143
f 118/154/120 119/155/122 151/187/146 150/186/144
f 105/141/121 106/142/123 138/174/147 137/173/145
f 119/155/122 120/156/124 152/188/148 151/187/146
f 106/142/123 107/143/125 139/175/149 138/174/147
f 120/156/124 121/157/126 153/189/150 152/188/148
f 107/143/125 108/144/127 140/176/151 139/175/149
f 121/157/126 122/158/128 154/190/152 153/189/150
f 108/144/127 109/145/129 141/177/153 140/176/151
f 122/158/128 123/159/130 155/191/154 154/190/152
f 109/145/129 110/146/70 142/178/155 141/177/153
f 123/159/130 124/160/106 156/192/156 155/191/154
f 110/146/70 111/147/69 143/179/157 142/178/155
f 97/133/104 98/134/103 130/166/158 129/165/141
f 124/160/106 125/161/105 157/193/159 156/192/156
f 111/147/69 112/148/107 144/180/160 143/179/157
f 98/134/103 99/135/108 131/167/161 130/166/158
f 125/161/105 126/162/109 158/194/162 157/193/159
f 112/148/107 113/149/99 145/181/102 144/180/160
f 99/135/108 100/136/110 132/168/136 131/167/161
f 126/162/109 127/163/111 159/195/138 158/194/162
f 180/216/134 181/217/133 193/229/163
f 135/171/142 136/172/143 168/204/164 167/203/165
f 149/185/132 150/186/144 182/218/166 181/217/133
f 136/172/143 137/173/145 169/205/167 168/204/164
f 150/186/144 151/187/146 183/219/168 182/218/166
f 137/173/145 138/174/147 170/206/169 169/205/167
f 151/187/146 152/188/148 184/220/170 183/219/168
f 138/174/147 139/175/149 171/207/171 170/206/169
f 152/188/148 153/189/150 185/221/172 184/220/170
f 139/175/149 140/176/151 172/208/173 171/207/171
f 153/189/150 154/190/152 186/222/174 185/221/172
f 140/176/151 141/177/153 173/209/175 172/208/173
f 154/190/152 155/191/154 187/223/176 186/222/174
f 141/177/153 142/178/155 174/210/177 173/209/175
f 155/191/154 156/192/156 188/224/178 187/223/176
f 142/178/155 143/179/157 175/211/179 174/210/177
f 129/165/141 130/166/158 162/198/180 161/197/181
f 156/192/156 157/193/159 189/225/182 188/224/178
f 143/179/157 144/180/160 176/212/183 175/211/179
f 130/166/158 131/167/161 163/199/184 162/198/180
f 157/193/159 158/194/162 190/226/185 189/225/182
f 144/180/160 145/181/102 177/213/186 176/212/183
f 131/167/161 132/168/136 164/200/187 163/199/184
f 158/194/162 159/195/138 191/227/188 190/226/185
f 145/181/102 146/182/101 178/214/189 177/213/186
f 132/168/136 133/169/135 165/201/190 164/200/187
f 159/195/138 160/196/137 192/228/191 191/227/188
f 146/182/101 147/183/139 179/215/192 178/214/189
f 133/169/135 134/170/140 166/202/193 165/201/190
f 160/196/137 129/165/141 161/197/181 192/228/191
f 147/183/139 148/184/131 180/216/134 179/215/192
f 134/170/140 135/171/142 167/203/165 166/202/193
f 167/203/165 168/204/164 193/229/163
f 181/217/133 182/218/166 193/229/163
f 168/204/164 169/205/167 193/229/163
f 182/218/166 183/219/168 193/229/163
f 169/205/167 170/206/169 193/229/163
f 183/219/168 184/220/170 193/229/163
f 170/206/169 171/207/171 193/229/163
f 184/220/170 185/221/172 193/229/163
f 171/207/171 172/208/173 193/229/163
f 185/221/172 186/222/174 193/229/163
f 172/208/173 173/209/175 193/229/163
f 186/222/174 187/223/176 193/229/163
f 173/209/175 174/210/177 193/229/163
f 187/223/176 188/224/178 193/229/163
f 174/210/177 175/211/179 193/229/163
f 161/197/181 162/198/180 193/229/163
f 188/224/178 189/225/182 193/229/163
f 175/211/179 176/212/183 193/229/163
f 162/198/180 163/199/184 193/229/163
f 189/225/182 190/226/185 193/229/163
f 176/212/183 177/213/186 193/229/163
f 163/199/184 164/200/187 193/229/163
f 190/226/185 191/227/188 193/229/163
f 177/213/186 178/214/189 193/229/163
f 164/200/187 165/201/190 193/229/163
f 191/227/188 192/228/191 193/229/163
f 178/214/189 179/215/192 193/229/163
f 165/201/190 166/202/193 193/229/163
f 192/228/191 161/197/181 193/229/163
f 179/215/192 180/216/134 193/229/163
f 166/202/193 167/203/165 193/229/163
